# xmcd
#
# Track frame offsets: 
#        150
#        16501
#        34397
#        60272
#        102137
#        119262
#        137896
#        155954
#        176995
#        207458
#        215180
#        242346
#        266924
#
# Disc length: 3968 seconds
#
# Revision: 2
# Processed by: cddbd v1.5.2PL0 Copyright (c) Steve Scherf et al.
# Submitted via: ExactAudioCopy v0.99pb4
#
DISCID=c10f7e0d
DTITLE=Barrelhouse - Live - As Long As It Is, It's Not What It Will Ha
DTITLE=ve Been
DYEAR=2004
DGENRE=Blues
TTITLE0=Three Times A Fool
TTITLE1=Skin And Bones
TTITLE2=Sally Go Round The Roses
TTITLE3=If You Really Wanna Leave
TTITLE4=The Other Side
TTITLE5=Coming Home No More
TTITLE6=I'm Torn Down
TTITLE7=Can't Believe
TTITLE8=Hard Time Killing Floor
TTITLE9=Straight To The Airport
TTITLE10=I Feel Like Breaking Up Somebody's Home Tonight
TTITLE11=Tell Me More
TTITLE12=Let Me Love You
EXTD=YEAR: 2004
EXTT0=
EXTT1=
EXTT2=
EXTT3=
EXTT4=
EXTT5=
EXTT6=
EXTT7=
EXTT8=
EXTT9=
EXTT10=
EXTT11=
EXTT12=
PLAYORDER=
